<mxfile host="app.diagrams.net" modified="2023-07-31T08:40:26.258Z" agent="Mozilla/5.0 (Macintosh; Intel Mac OS X 10_15_7) AppleWebKit/537.36 (KHTML, like Gecko) Chrome/114.0.0.0 Safari/537.36" etag="G713WrtB5K_Jp6eMOSq8" version="21.2.1" type="github">
  <diagram name="第 1 页" id="2doKhfyTxvmAfVmX1QRC">
    <mxGraphModel dx="2074" dy="1085" grid="1" gridSize="10" guides="1" tooltips="1" connect="1" arrows="1" fold="1" page="1" pageScale="1" pageWidth="2339" pageHeight="3300" math="0" shadow="0">
      <root>
        <mxCell id="0" />
        <mxCell id="1" parent="0" />
        <mxCell id="g_p9rQUHt0_gcAnSfRzu-19" value="runtime" style="rounded=0;whiteSpace=wrap;html=1;align=left;verticalAlign=top;fillColor=#d5e8d4;strokeColor=#82b366;" vertex="1" parent="1">
          <mxGeometry x="720" y="240" width="530" height="500" as="geometry" />
        </mxCell>
        <mxCell id="g_p9rQUHt0_gcAnSfRzu-2" value="编辑器" style="rounded=0;whiteSpace=wrap;html=1;align=left;verticalAlign=top;" vertex="1" parent="1">
          <mxGeometry x="770" y="780" width="430" height="310" as="geometry" />
        </mxCell>
        <mxCell id="g_p9rQUHt0_gcAnSfRzu-3" value="iframe预览区域" style="rounded=0;whiteSpace=wrap;html=1;align=left;verticalAlign=top;" vertex="1" parent="1">
          <mxGeometry x="810" y="815" width="170" height="240" as="geometry" />
        </mxCell>
        <mxCell id="g_p9rQUHt0_gcAnSfRzu-5" value="表单配置" style="rounded=0;whiteSpace=wrap;html=1;align=left;verticalAlign=top;labelBackgroundColor=none;fillColor=#dae8fc;strokeColor=none;" vertex="1" parent="1">
          <mxGeometry x="1025" y="815" width="150" height="240" as="geometry" />
        </mxCell>
        <mxCell id="g_p9rQUHt0_gcAnSfRzu-6" value="组件" style="rounded=0;whiteSpace=wrap;html=1;verticalAlign=top;align=left;" vertex="1" parent="1">
          <mxGeometry x="770" y="265" width="200" height="450" as="geometry" />
        </mxCell>
        <mxCell id="g_p9rQUHt0_gcAnSfRzu-7" value="头像组件" style="rounded=0;whiteSpace=wrap;html=1;" vertex="1" parent="1">
          <mxGeometry x="810" y="295" width="120" height="60" as="geometry" />
        </mxCell>
        <mxCell id="g_p9rQUHt0_gcAnSfRzu-8" value="领取" style="rounded=0;whiteSpace=wrap;html=1;" vertex="1" parent="1">
          <mxGeometry x="810" y="475" width="120" height="60" as="geometry" />
        </mxCell>
        <mxCell id="g_p9rQUHt0_gcAnSfRzu-9" value="抽奖" style="rounded=0;whiteSpace=wrap;html=1;" vertex="1" parent="1">
          <mxGeometry x="810" y="385" width="120" height="60" as="geometry" />
        </mxCell>
        <mxCell id="g_p9rQUHt0_gcAnSfRzu-10" value="奖券" style="rounded=0;whiteSpace=wrap;html=1;" vertex="1" parent="1">
          <mxGeometry x="815" y="625" width="120" height="60" as="geometry" />
        </mxCell>
        <mxCell id="g_p9rQUHt0_gcAnSfRzu-12" value="表单配置" style="rounded=0;whiteSpace=wrap;html=1;verticalAlign=top;align=left;" vertex="1" parent="1">
          <mxGeometry x="1000" y="265" width="200" height="450" as="geometry" />
        </mxCell>
        <mxCell id="g_p9rQUHt0_gcAnSfRzu-13" value="头像表单配置" style="rounded=0;whiteSpace=wrap;html=1;" vertex="1" parent="1">
          <mxGeometry x="1040" y="295" width="120" height="60" as="geometry" />
        </mxCell>
        <mxCell id="g_p9rQUHt0_gcAnSfRzu-14" value="领取表单配置" style="rounded=0;whiteSpace=wrap;html=1;" vertex="1" parent="1">
          <mxGeometry x="1040" y="475" width="120" height="60" as="geometry" />
        </mxCell>
        <mxCell id="g_p9rQUHt0_gcAnSfRzu-15" value="抽奖表单配置" style="rounded=0;whiteSpace=wrap;html=1;" vertex="1" parent="1">
          <mxGeometry x="1040" y="385" width="120" height="60" as="geometry" />
        </mxCell>
        <mxCell id="g_p9rQUHt0_gcAnSfRzu-16" value="奖券表单配置" style="rounded=0;whiteSpace=wrap;html=1;" vertex="1" parent="1">
          <mxGeometry x="1045" y="625" width="120" height="60" as="geometry" />
        </mxCell>
        <mxCell id="g_p9rQUHt0_gcAnSfRzu-17" value="" style="shape=singleArrow;direction=south;whiteSpace=wrap;html=1;" vertex="1" parent="1">
          <mxGeometry x="840" y="710" width="60" height="110" as="geometry" />
        </mxCell>
        <mxCell id="g_p9rQUHt0_gcAnSfRzu-18" value="" style="shape=singleArrow;direction=south;whiteSpace=wrap;html=1;" vertex="1" parent="1">
          <mxGeometry x="1075" y="715" width="60" height="115" as="geometry" />
        </mxCell>
      </root>
    </mxGraphModel>
  </diagram>
</mxfile>
